# xmcd
#
# Track frame offsets:
#	150
#	18437
#	34317
#	53827
#	80382
#	98605
#	117742
#	136275
#	160770
#	181145
#	201192
#	219227
#	231192
#
# Disc length: 3271 seconds
#
# Revision: 1
# Processed by: cddbd v1.5.1PL0 Copyright (c) Steve Scherf et al.
# Submitted via: CDex 1.50Beta5
#
DISCID=a90cc50d
DTITLE=結城梨沙 - 機動戦士SDガンダム/私をコロニーに連れてって
DYEAR=1989
DGENRE=Pop
TTITLE0=結城梨沙/Planet Zone
TTITLE1=林原めぐみ/Hold You
TTITLE2=島津冴子/海に行きたいの
TTITLE3=島津冴子/彼女はペパーミント
TTITLE4=立木文彦/SDガンダム・パラダイス
TTITLE5=サントラ/デイトリッパー
TTITLE6=サントラ/星に願いを
TTITLE7=飛騨展男/イパネマ娘の逆襲
TTITLE8=飛騨展男/GAMANできないよっ
TTITLE9=サントラ/いつでも夢を
TTITLE10=西村智博/Scarling Night
TTITLE11=インストゥルメンタル/海岸通り
TTITLE12=インストゥルメンタル/夏のシルエット
EXTD=
EXTT0=
EXTT1=
EXTT2=
EXTT3=
EXTT4=
EXTT5=
EXTT6=
EXTT7=
EXTT8=
EXTT9=
EXTT10=
EXTT11=
EXTT12=
PLAYORDER=
